
<svg fill="#000000" height="800px" width="800px" version="1.1" id="Layer_1" xmlns="http://www.w3.org/2000/svg" xmlns:xlink="http://www.w3.org/1999/xlink" 
	 viewBox="0 0 330 330" xml:space="preserve">
<g id="XMLID_16_">
	<polygon id="XMLID_17_" points="86.608,170.361 92.148,170.361 89.39,161.174 	"/>
	<path id="XMLID_18_" d="M315,42.857H15c-8.284,0-15,6.716-15,15v214.285c0,8.284,6.716,15,15,15h300c8.284,0,15-6.716,15-15V57.857
		C330,49.573,323.284,42.857,315,42.857z M103.431,193.662c-2.539,0-4.688-1.521-5.473-3.875c-0.013-0.04-0.025-0.081-0.038-0.121
		l-2.233-7.48h-12.63l-2.216,7.42c-0.663,2.431-2.896,4.056-5.596,4.056c-3.15,0-6.55-2.247-6.55-5.879c0-0.294,0-0.995,0.289-1.79
		l13.98-45.422c0.832-2.66,3.358-4.367,6.44-4.367c3.068,0,5.612,1.679,6.479,4.277l13.988,45.661
		c0.059,0.189,0.103,0.383,0.132,0.579c0.059,0.268,0.111,0.598,0.111,0.995C110.115,191.273,106.659,193.662,103.431,193.662z
		 M161.25,187.917c0,3.275-2.672,5.745-6.215,5.745c-3.485,0-6.215-2.523-6.215-5.745v-21.59l-3.604,6.816
		c-1.202,2.254-3.149,3.54-5.349,3.54c-1.269,0-3.64-0.458-5.274-3.529l-3.543-6.806v21.569c0,3.221-2.729,5.745-6.215,5.745
		c-3.543,0-6.214-2.47-6.214-5.745v-45.164c0-3.562,2.613-6.147,6.214-6.147c4.381,0,6.432,3.945,7.106,5.242l7.994,15.43
		l7.991-15.425c1.811-3.483,4.201-5.247,7.108-5.247c3.659,0,6.215,2.528,6.215,6.147V187.917z M202.412,159.154
		c3.184,0,5.678,2.641,5.678,6.013c0,3.314-2.44,5.812-5.678,5.812h-6.536v10.589h17.475c3.184,0,5.678,2.671,5.678,6.08
		c0,3.428-2.44,6.013-5.678,6.013H189.46c-3.372,0-6.013-2.523-6.013-5.745v-45.634c0-3.237,2.585-5.678,6.013-5.678h23.891
		c3.237,0,5.678,2.556,5.678,5.946c0,3.504-2.44,6.148-5.678,6.148h-17.475v10.455H202.412z M254.688,193.796
		c-3.48,0-5.007-3.054-5.659-4.358l-6.354-12.02l-6.396,12.1c-0.61,1.224-2.138,4.278-5.617,4.278c-3.13,0-6.617-2.552-6.617-6.215
		c0-0.995,0.226-1.931,0.69-2.861c0.019-0.038,0.037-0.075,0.058-0.111l10.524-19.52l-10.31-19.338
		c-0.595-1.061-0.895-2.183-0.895-3.334c0-3.335,2.906-5.946,6.617-5.946c3.467,0,5.102,3.069,5.801,4.38l6.145,11.734l6.119-11.688
		c0.728-1.363,2.362-4.426,5.826-4.426c3.711,0,6.617,2.612,6.617,5.946c0,1.15-0.302,2.273-0.897,3.337l-10.369,19.335
		l10.582,19.511c0.021,0.04,0.042,0.08,0.062,0.12c0.465,0.93,0.69,1.866,0.69,2.861
		C261.305,191.244,257.817,193.796,254.688,193.796z"/>
</g>
</svg>